<svg id="Layer_1" data-name="Layer 1" xmlns="http://www.w3.org/2000/svg" xmlns:xlink="http://www.w3.org/1999/xlink" viewBox="0 0 277.39 218.3"><defs><style>.cls-1,.cls-2,.cls-4{stroke:#000;stroke-miterlimit:10;}.cls-1{stroke-width:5px;fill:url(#linear-gradient);}.cls-2{stroke-width:9px;}.cls-3{fill:#fff;}.cls-4{stroke-width:6px;}.cls-5{fill:#eaff30;}</style><linearGradient id="linear-gradient" x1="138.55" y1="89.48" x2="146.55" y2="188.3" gradientUnits="userSpaceOnUse"><stop offset="0" stop-color="#ffa230"/><stop offset="1" stop-color="#4530ff"/></linearGradient></defs><title>erl-manhwa-logo</title><polygon class="cls-1" points="3.05 64.38 266.55 21.88 255.55 192.88 168.05 193.38 154.05 214.38 133.05 193.38 33.55 193.88 3.05 64.38"/><polygon points="269.55 15.16 176.01 32.25 270.59 0 269.55 15.16"/><polygon points="32.05 200.38 34.05 207.38 108.05 200.38 32.05 200.38"/><path class="cls-2" d="M65,148q26,1.41,40.67,1.69c1,.16,1.58,1.22,1.58,3.17q0,13.27-2,21.33a1.71,1.71,0,0,1-1.86,1.57q-21,.15-52.27-2.47a104.63,104.63,0,0,1-15.93-1.87c-1.13-.26-1.72-.82-1.76-1.7Q34.55,139.14,37,114l-5.41-.09A1.49,1.49,0,0,1,30,112.79a130.57,130.57,0,0,1-.51-23c.36-1.51,1.08-2.27,2.15-2.26q30.58-.17,72.43,4.41a2,2,0,0,1,2,1.78q1.1,8.25-.91,20.83c-.32,1.92-1.11,2.89-2.39,2.9q-17.57-1.41-35.31-2.31l-.36,5.69q15.42.89,25.35,1.77c1,.12,1.43.93,1.47,2.44q.08,10.44-1.65,16.78A1.49,1.49,0,0,1,90.69,143q-11.09-.57-25.1-1.1Q65.34,145,65,148Z" transform="translate(-7.95 -36.63)"/><path class="cls-2" d="M144.9,151.65q-.18,10.32-.83,21.84c-.08.95-1.19,1.48-3.33,1.6A131.66,131.66,0,0,1,117,172.66c-1.11-.16-1.72-.67-1.84-1.54q-1.3-29-1-53.9c-1.82.11-3.66.21-5.52.29a1.49,1.49,0,0,1-1.67-1.13A126.07,126.07,0,0,1,105,95.79a4.28,4.28,0,0,1,2-2.5q15.27-5.87,42.39-7,18-.9,38.17,5.58,7.65,3,9.85,13.71,3.15,28.56-1.84,37.64-3.09,4.74-9.85,6.47c-1.27.23-2.53.45-3.8.65Q191.08,160,196,164.76c.55.68.18,1.69-1.13,3a113.46,113.46,0,0,1-15.91,13.89q-1.36,1-2.25.12Q165.91,172.25,144.9,151.65ZM165,115.85q-7.59-.3-20.24.12.18,8.61.24,17.21,8.65,2.08,22.2,0a4.7,4.7,0,0,0,2.85-1.72,14.18,14.18,0,0,0,2.07-7.42,18.62,18.62,0,0,0-.47-5.46Q170.79,116.09,165,115.85Z" transform="translate(-7.95 -36.63)"/><path class="cls-2" d="M208.65,176.67a2.36,2.36,0,0,1-2.1-1.94Q200,129.2,198.71,95c0-.79.78-1.36,2.46-1.72A138.36,138.36,0,0,1,226,91c.84.08,1.29.43,1.35,1.06q4.1,28.35,6.49,56.33,24.28-3,40-4.62c1,0,1.66.94,2,2.85q2.26,13.08,1.82,20.76A2.48,2.48,0,0,1,276,169.9Q237,175.44,208.65,176.67Z" transform="translate(-7.95 -36.63)"/><path class="cls-3" d="M67.27,147.6q25.29,1.36,39.59,1.64c1,.16,1.55,1.19,1.54,3.08q0,12.94-2,20.78a1.68,1.68,0,0,1-1.81,1.53q-20.43.15-50.9-2.41a102.58,102.58,0,0,1-15.51-1.82c-1.1-.25-1.67-.8-1.72-1.66Q37.58,139,40,114.57l-5.27-.09a1.44,1.44,0,0,1-1.53-1.12A126.56,126.56,0,0,1,32.69,91c.35-1.48,1.05-2.22,2.09-2.21q29.78-.16,70.53,4.29a1.91,1.91,0,0,1,2,1.74q1.06,8-.89,20.28c-.31,1.87-1.09,2.81-2.32,2.82Q87,116.55,69.71,115.67c-.11,1.85-.23,3.69-.35,5.54q15,.86,24.69,1.72c.91.12,1.39.91,1.42,2.38q.07,10.16-1.6,16.34a1.44,1.44,0,0,1-1.61,1.14q-10.8-.56-24.44-1.06Q67.57,144.67,67.27,147.6Z" transform="translate(-7.95 -36.63)"/><path class="cls-3" d="M145.19,151q-.16,10.06-.81,21.28c-.07.92-1.15,1.44-3.23,1.56A129.16,129.16,0,0,1,118,171.48c-1.08-.16-1.68-.66-1.8-1.51q-1.26-28.26-.92-52.48c-1.77.11-3.57.21-5.38.29a1.45,1.45,0,0,1-1.62-1.1,123.42,123.42,0,0,1-2-20.06,4.16,4.16,0,0,1,2-2.43q14.85-5.72,41.27-6.82,17.57-.87,37.17,5.44,7.45,2.94,9.59,13.35,3.06,27.79-1.79,36.65c-2,3.08-5.2,5.18-9.6,6.3-1.23.23-2.46.44-3.7.63q9,9.36,13.7,14c.54.65.18,1.64-1.1,3a110.48,110.48,0,0,1-15.49,13.52q-1.32.93-2.19.12Q165.65,171.07,145.19,151Zm19.54-34.85q-7.39-.28-19.71.11.18,8.39.23,16.77,8.44,2,21.62,0a4.6,4.6,0,0,0,2.77-1.68,13.88,13.88,0,0,0,2-7.22,18,18,0,0,0-.47-5.32C170.66,117.2,168.51,116.31,164.73,116.16Z" transform="translate(-7.95 -36.63)"/><path class="cls-3" d="M207.37,175.58a2.29,2.29,0,0,1-2-1.9q-6.42-44.33-7.64-77.66c0-.77.76-1.33,2.39-1.68a134.06,134.06,0,0,1,24.18-2.2c.82.07,1.26.42,1.32,1q4,27.6,6.31,54.85,23.66-2.91,38.94-4.5c1,0,1.62.91,1.95,2.78Q275,159,274.55,166.51a2.43,2.43,0,0,1-1.62,2.48Q235,174.38,207.37,175.58Z" transform="translate(-7.95 -36.63)"/><path class="cls-4" d="M38.67,205.11q-1.06,8.74-2.35,16.6c-.11.42-.65.61-1.63.6a61.85,61.85,0,0,1-10.85-.93c-.51-.11-.77-.36-.77-.75A314.67,314.67,0,0,1,27.48,187c.07-.34.57-.69,1.5-1a41.5,41.5,0,0,1,11.21-1.37,1.15,1.15,0,0,1,.83.46q2.34,3.54,5.16,7.88,2.79-4.33,5.14-7.88a1,1,0,0,1,.72-.46A41.41,41.41,0,0,1,63.23,186c.92.34,1.42.69,1.49,1a311.76,311.76,0,0,1,4.42,33.6q0,.59-.75.75a62.3,62.3,0,0,1-10.87.93c-1,0-1.52-.18-1.6-.6q-1.29-7.8-2.35-16.45-2.9,3.31-6.69,7.6a.85.85,0,0,1-.7.38.87.87,0,0,1-.7-.38Q41.61,208.49,38.67,205.11Z" transform="translate(-7.95 -36.63)"/><path class="cls-4" d="M87.09,215c-.86,3-1.75,5.87-2.66,8.62-.14.4-.67.51-1.6.34a37.58,37.58,0,0,1-9.51-3.2c-.46-.18-.68-.46-.64-.86q4.26-20.08,8.73-34.32c.12-.31.47-.53,1-.67a91.23,91.23,0,0,1,21.26-.33c.86.12,1.37.45,1.55,1a334.84,334.84,0,0,1,8.44,34.09.79.79,0,0,1-.62.85,62.37,62.37,0,0,1-9.58,2.74c-.93.17-1.46.06-1.6-.33q-1.32-4.19-2.53-8.45Q93.54,214.79,87.09,215ZM91.27,199q-.8,3.47-1.7,6.92c2.73,0,5.23-.06,7.48-.07q-.87-3.42-1.67-6.87Z" transform="translate(-7.95 -36.63)"/><path class="cls-4" d="M130,208.44q-.18,8.3-.41,13.43c0,.58-.56.86-1.53.82a39.19,39.19,0,0,1-9.29-1.16,1.08,1.08,0,0,1-.83-1.08q-.89-15.06-1-32.41c0-.45.44-.95,1.34-1.5q3.64-2.46,11.23-2.3c.18,0,.36.17.55.44q4.31,5.9,9.91,14.28.18-8.62.42-13.92c0-.58.56-.86,1.52-.82a38.58,38.58,0,0,1,9.3,1.18,1,1,0,0,1,.82,1.06q.89,15.06,1,32.41a2.35,2.35,0,0,1-1.34,1.53q-4.23,2.44-10.95,2.35c-.27,0-.64-.34-1.11-.91Q135.41,216.68,130,208.44Z" transform="translate(-7.95 -36.63)"/><path class="cls-4" d="M178.3,202.22q-.17-7.75-.31-15.63a.73.73,0,0,1,.54-.8,65.74,65.74,0,0,1,11.31-1c.76.12,1.15.44,1.19,1q1.47,21.66.31,35.2a1,1,0,0,1-.8,1,38.16,38.16,0,0,1-10.33.26c-1-.09-1.46-.44-1.53-1.06q-.08-4.08-.15-8.21-3.61.28-7.44.51,0,4-.1,7.86c-.05.41-.57.65-1.55.72a63.92,63.92,0,0,1-10.9-.08c-.52-.07-.8-.3-.85-.7a330.83,330.83,0,0,1-.08-35.76c0-.36.41-.59,1.19-.67a65.73,65.73,0,0,1,11.39,0q.57.11.57.54.26,8.52.33,16.79Q175,202.16,178.3,202.22Z" transform="translate(-7.95 -36.63)"/><path class="cls-4" d="M217.7,194.08a.81.81,0,0,1,.7-.39.79.79,0,0,1,.7.39q3.79,4.29,6.69,7.59,1.05-8.67,2.35-16.45c.08-.41.62-.61,1.6-.59a62.3,62.3,0,0,1,10.87.93q.75.15.75.75a312.11,312.11,0,0,1-4.42,33.6c-.07.34-.56.68-1.49,1a41.41,41.41,0,0,1-11.19,1.37,1,1,0,0,1-.72-.47q-2.35-3.56-5.14-7.87c-1.87,2.87-3.6,5.5-5.16,7.87a1.16,1.16,0,0,1-.83.47,41.5,41.5,0,0,1-11.21-1.37c-.93-.35-1.43-.69-1.5-1a315,315,0,0,1-4.41-33.6c0-.4.26-.65.77-.75a61.85,61.85,0,0,1,10.85-.93c1,0,1.52.18,1.63.59q1.29,7.86,2.35,16.61Q213.83,198.44,217.7,194.08Z" transform="translate(-7.95 -36.63)"/><path class="cls-4" d="M255.72,215c-.86,3-1.75,5.87-2.66,8.62-.14.4-.67.51-1.6.34a37.58,37.58,0,0,1-9.51-3.2c-.46-.18-.68-.46-.64-.86q4.26-20.08,8.73-34.32c.12-.31.47-.53,1.05-.67a91.23,91.23,0,0,1,21.26-.33c.86.12,1.37.45,1.55,1a334.84,334.84,0,0,1,8.44,34.09.79.79,0,0,1-.62.85,62.37,62.37,0,0,1-9.58,2.74c-.93.17-1.46.06-1.6-.33q-1.32-4.19-2.53-8.45Q262.18,214.79,255.72,215ZM259.9,199q-.79,3.47-1.7,6.92c2.73,0,5.23-.06,7.48-.07q-.87-3.42-1.67-6.87Z" transform="translate(-7.95 -36.63)"/><path class="cls-5" d="M41.77,204.2q-1,8.53-2.3,16.19c-.1.4-.63.59-1.58.58a60,60,0,0,1-10.58-.91c-.5-.1-.75-.34-.75-.73a303.75,303.75,0,0,1,4.3-32.76c.07-.33.56-.67,1.46-1a40.62,40.62,0,0,1,10.93-1.33,1.1,1.1,0,0,1,.81.45q2.28,3.45,5,7.68,2.73-4.23,5-7.68a1,1,0,0,1,.71-.45,40.45,40.45,0,0,1,10.9,1.33c.91.34,1.39.68,1.46,1a306,306,0,0,1,4.31,32.76c0,.39-.25.63-.73.73a60.57,60.57,0,0,1-10.6.91c-1,0-1.48-.18-1.57-.58q-1.24-7.6-2.29-16-2.82,3.22-6.52,7.4a.82.82,0,0,1-.68.38.83.83,0,0,1-.68-.38Q44.63,207.51,41.77,204.2Z" transform="translate(-7.95 -36.63)"/><path class="cls-5" d="M89,213.79c-.84,2.92-1.71,5.73-2.6,8.41q-.19.59-1.56.33a36,36,0,0,1-9.26-3.12c-.46-.17-.67-.45-.63-.83q4.16-19.59,8.51-33.47c.12-.3.46-.52,1-.65a88.26,88.26,0,0,1,20.72-.33c.84.12,1.35.44,1.51,1a326.5,326.5,0,0,1,8.24,33.24.79.79,0,0,1-.61.83,61,61,0,0,1-9.34,2.67c-.9.17-1.43.06-1.56-.33q-1.29-4.08-2.47-8.23Q95.28,213.64,89,213.79Zm4.08-15.54q-.78,3.38-1.67,6.75l7.31-.07q-.86-3.33-1.64-6.7C95.77,198.25,94.43,198.25,93.06,198.25Z" transform="translate(-7.95 -36.63)"/><path class="cls-5" d="M130.8,207.45q-.18,8.07-.4,13.09c-.05.57-.55.84-1.49.81a38.7,38.7,0,0,1-9.06-1.14,1.07,1.07,0,0,1-.81-1.05q-.86-14.68-1-31.61c0-.43.43-.92,1.3-1.46q3.55-2.39,11-2.24c.17,0,.34.16.53.43q4.2,5.75,9.67,13.93.17-8.42.4-13.58c0-.57.54-.84,1.48-.8a36.89,36.89,0,0,1,9.07,1.16,1,1,0,0,1,.8,1q.87,14.67,1,31.6c-.08.54-.52,1-1.31,1.48q-4.12,2.4-10.67,2.3c-.27,0-.63-.33-1.09-.89Q136.1,215.49,130.8,207.45Z" transform="translate(-7.95 -36.63)"/><path class="cls-5" d="M177.91,201.38q-.15-7.56-.3-15.24a.72.72,0,0,1,.53-.78,64.38,64.38,0,0,1,11-1c.74.12,1.12.43,1.16.93q1.42,21.13.3,34.32a.93.93,0,0,1-.78,1,36.71,36.71,0,0,1-10.07.25c-.93-.08-1.42-.43-1.49-1q-.07-4-.15-8-3.52.28-7.25.51c0,2.56,0,5.12-.1,7.65,0,.4-.56.64-1.51.71a62.84,62.84,0,0,1-10.63-.08c-.5-.07-.78-.29-.83-.68a324.69,324.69,0,0,1-.08-34.87c0-.36.41-.57,1.16-.66a65.51,65.51,0,0,1,11.11,0c.37.07.55.25.55.53q.25,8.31.33,16.37Q174.75,201.32,177.91,201.38Z" transform="translate(-7.95 -36.63)"/><path class="cls-5" d="M216.34,193.45a.73.73,0,0,1,.68-.38.74.74,0,0,1,.68.38q3.7,4.17,6.52,7.4,1-8.46,2.29-16c.08-.4.61-.6,1.56-.58a60.48,60.48,0,0,1,10.6.91c.49.1.73.34.73.73a303.75,303.75,0,0,1-4.3,32.76c-.07.33-.56.67-1.46,1A40.54,40.54,0,0,1,222.73,221a.94.94,0,0,1-.7-.46q-2.29-3.47-5-7.68-2.75,4.21-5,7.68a1.08,1.08,0,0,1-.8.46,40.54,40.54,0,0,1-10.93-1.34c-.91-.33-1.4-.67-1.46-1a306,306,0,0,1-4.31-32.76c0-.39.25-.63.76-.73a60,60,0,0,1,10.57-.91c1,0,1.49.18,1.59.58q1.26,7.65,2.29,16.19Q212.56,197.7,216.34,193.45Z" transform="translate(-7.95 -36.63)"/><path class="cls-5" d="M253.4,213.79c-.84,2.92-1.7,5.73-2.59,8.41q-.19.59-1.56.33a36.23,36.23,0,0,1-9.27-3.12c-.45-.17-.66-.45-.63-.83q4.16-19.59,8.51-33.47c.12-.3.47-.52,1-.65a88.26,88.26,0,0,1,20.72-.33c.84.12,1.34.44,1.51,1a326.72,326.72,0,0,1,8.23,33.24c0,.39-.16.66-.6.83a61.37,61.37,0,0,1-9.34,2.67q-1.37.26-1.56-.33-1.29-4.08-2.47-8.23Q259.71,213.64,253.4,213.79Zm4.08-15.54q-.78,3.38-1.66,6.75l7.3-.07q-.86-3.33-1.63-6.7C260.19,198.25,258.86,198.25,257.48,198.25Z" transform="translate(-7.95 -36.63)"/></svg>